<?xml version="1.0" encoding="utf-8"?>
<!-- Generator: Adobe Illustrator 24.1.2, SVG Export Plug-In . SVG Version: 6.00 Build 0)  -->
<svg version="1.1" id="圖層_1" xmlns="http://www.w3.org/2000/svg" xmlns:xlink="http://www.w3.org/1999/xlink" x="0px" y="0px"
	 viewBox="0 0 1024 768" style="enable-background:new 0 0 1024 768;" xml:space="preserve">
<style type="text/css">
	.st0{fill:#BBBBBB;}
	.st1{fill:#790BD1;}
	.st2{fill:#FFFFFF;}
	.st3{opacity:0.2;enable-background:new    ;}
</style>
<rect y="0" class="st0" width="1024" height="768"/>
<path class="st1" d="M579.9,442.4H429.8c-2.5,0-4.5-2-4.5-4.5V316.2c0-2.5,2-4.5,4.5-4.5H580c2.5,0,4.5,2,4.5,4.5v121.8
	C584.3,440.4,582.3,442.4,579.9,442.4z M429.8,313c-1.8,0-3.2,1.4-3.2,3.2V438c0,1.8,1.4,3.2,3.2,3.2H580c1.8,0,3.2-1.4,3.2-3.2
	V316.2c0-1.8-1.4-3.2-3.2-3.2C579.9,313,429.8,313,429.8,313z"/>
<path class="st1" d="M594.3,456.3H444.1c-2.5,0-4.5-2-4.5-4.5V330.1c0-2.5,2-4.5,4.5-4.5h150.2c2.5,0,4.5,2,4.5,4.5v121.8
	C598.7,454.2,596.7,456.3,594.3,456.3z"/>
<path class="st2" d="M536.3,426.3h-76.6c-0.2,0-0.2,0-0.3,0l36.3-62.7c0.7-1.1,2.2-1.6,3.4-1c0.4,0.3,0.7,0.6,1,1l24.3,42.2l1.1,2
	L536.3,426.3z"/>
<polygon class="st3" points="536.3,426.3 510.2,426.3 523,407.7 524,406.2 524.4,405.7 525.6,407.7 "/>
<path class="st2" d="M579,426.3h-66.3l12.9-18.6l0.9-1.3l16.8-24.3c1.1-1.4,3.4-1.8,4.8-0.6c0.2,0.2,0.2,0.2,0.3,0.3
	c0.2,0.2,0.2,0.2,0.3,0.3L579,426.3z"/>
<circle class="st2" cx="574.5" cy="350.6" r="11.4"/>
<circle class="st1" cx="432.6" cy="319.1" r="3"/>
<circle class="st1" cx="432.6" cy="435" r="3"/>
<circle class="st1" cx="576.9" cy="319.1" r="3"/>
</svg>
