<?xml version="1.0" encoding="utf-8"?>
<!-- Generator: Adobe Illustrator 24.1.2, SVG Export Plug-In . SVG Version: 6.00 Build 0)  -->
<svg version="1.1" id="圖層_1" xmlns="http://www.w3.org/2000/svg" xmlns:xlink="http://www.w3.org/1999/xlink" x="0px" y="0px"
	 viewBox="0 0 850 300" style="enable-background:new 0 0 850 300;" xml:space="preserve">
<style type="text/css">
	.st0{fill:#BBBBBB;}
	.st1{fill:#790BD1;}
	.st2{fill:#FFFFFF;}
	.st3{opacity:0.2;enable-background:new    ;}
</style>
<rect class="st0" width="850" height="300"/>
<path class="st1" d="M472,190.4H368.1c-1.7,0-3.1-1.4-3.1-3.1v-84.2c0-1.7,1.4-3.1,3.1-3.1H472c1.7,0,3.1,1.4,3.1,3.1v84.2
	C475,189,473.6,190.4,472,190.4z M368.1,100.9c-1.2,0-2.2,1-2.2,2.2v84.2c0,1.2,1,2.2,2.2,2.2H472c1.2,0,2.2-1,2.2-2.2v-84.2
	c0-1.2-1-2.2-2.2-2.2H368.1z"/>
<path class="st1" d="M481.9,200H378c-1.7,0-3.1-1.4-3.1-3.1v-84.2c0-1.7,1.4-3.1,3.1-3.1h103.9c1.7,0,3.1,1.4,3.1,3.1v84.2
	C485,198.6,483.6,200,481.9,200z"/>
<path class="st2" d="M441.8,179.3h-53c-0.1,0-0.1,0-0.2,0l25.1-43.4c0.5-0.8,1.5-1.1,2.4-0.7c0.3,0.2,0.5,0.4,0.7,0.7l16.8,29.2
	l0.8,1.4L441.8,179.3z"/>
<polygon class="st3" points="441.8,179.3 423.7,179.3 432.6,166.4 433.3,165.4 433.6,165 434.4,166.4 "/>
<path class="st2" d="M471.4,179.3h-45.9l8.9-12.9l0.6-0.9l11.6-16.8c0.8-1,2.3-1.2,3.3-0.4c0.1,0.1,0.1,0.1,0.2,0.2
	c0.1,0.1,0.1,0.1,0.2,0.2L471.4,179.3z"/>
<circle class="st2" cx="468.2" cy="126.9" r="7.9"/>
<circle class="st1" cx="370.1" cy="105.1" r="2.1"/>
<circle class="st1" cx="370.1" cy="185.3" r="2.1"/>
<circle class="st1" cx="469.9" cy="105.1" r="2.1"/>
</svg>
